HIERARCHY
ROOT Hips
{
  OFFSET 43.0842 91.1655 101.099
  CHANNELS 6 Xposition Yposition Zposition Zrotation Xrotation Yrotation
  JOINT LeftUpLeg
  {
    OFFSET 8.64259 1.95398 -2.38835
    CHANNELS 3 Zrotation Xrotation Yrotation
    JOINT LeftLeg
    {
      OFFSET 43.7702 0 0
      CHANNELS 3 Zrotation Xrotation Yrotation
      JOINT LeftFoot
      {
        OFFSET 40.6238 0 0
        CHANNELS 3 Zrotation Xrotation Yrotation
        JOINT LeftToeBase
        {
          OFFSET 12.7242 0 0
          CHANNELS 3 Zrotation Xrotation Yrotation
          End Site
          {
            OFFSET 0 0 0
          }
        }
      }
    }
  }
  JOINT RightUpLeg
  {
    OFFSET -8.2249 1.95398 -2.59336
    CHANNELS 3 Zrotation Xrotation Yrotation
    JOINT RightLeg
    {
      OFFSET 43.5653 0 0
      CHANNELS 3 Zrotation Xrotation Yrotation
      JOINT RightFoot
      {
        OFFSET 40.6238 0 0
        CHANNELS 3 Zrotation Xrotation Yrotation
        JOINT RightToeBase
        {
          OFFSET 12.7242 0 0
          CHANNELS 3 Zrotation Xrotation Yrotation
          End Site
          {
            OFFSET 0 0 0
          }
        }
      }
    }
  }
  JOINT Spine
  {
    OFFSET 0.165834 0.87714 6.61349
    CHANNELS 3 Zrotation Xrotation Yrotation
    JOINT Spine1
    {
      OFFSET 7.38963 1.71661e-005 0
      CHANNELS 3 Zrotation Xrotation Yrotation
      JOINT Spine2
      {
        OFFSET 11.9445 1.14441e-005 0
        CHANNELS 3 Zrotation Xrotation Yrotation
        JOINT Spine3
        {
          OFFSET 14.7254 4.19617e-005 0
          CHANNELS 3 Zrotation Xrotation Yrotation
          JOINT Spine4
          {
            OFFSET 10.9679 0 0
            CHANNELS 3 Zrotation Xrotation Yrotation
            JOINT RightShoulder
            {
              OFFSET 2.46616 -1.6653 3.69651
              CHANNELS 3 Zrotation Xrotation Yrotation
              JOINT RightArm
              {
                OFFSET 13.0012 0 0
                CHANNELS 3 Zrotation Xrotation Yrotation
                JOINT RightForeArm
                {
                  OFFSET 28.7848 1.52588e-005 0
                  CHANNELS 3 Zrotation Xrotation Yrotation
                  JOINT RightHand
                  {
                    OFFSET 26.5688 1.52588e-005 0
                    CHANNELS 3 Zrotation Xrotation Yrotation
                    End Site
                    {
                      OFFSET 0 0 0
                    }
                  }
                }
              }
            }
            JOINT LeftShoulder
            {
              OFFSET 2.38034 -1.29275 -3.7523
              CHANNELS 3 Zrotation Xrotation Yrotation
              JOINT LeftArm
              {
                OFFSET 16.3182 6.10351e-005 0
                CHANNELS 3 Zrotation Xrotation Yrotation
                JOINT LeftForeArm
                {
                  OFFSET 27.0901 0 0
                  CHANNELS 3 Zrotation Xrotation Yrotation
                  JOINT LeftHand
                  {
                    OFFSET 24.5451 1.52588e-005 0
                    CHANNELS 3 Zrotation Xrotation Yrotation
                    End Site
                    {
                      OFFSET 0 0 0
                    }
                  }
                }
              }
            }
            JOINT Neck
            {
              OFFSET 5.0226 -0.0266342 0
              CHANNELS 3 Zrotation Xrotation Yrotation
              JOINT Head
              {
                OFFSET 6.69364 2.86102e-005 0
                CHANNELS 3 Zrotation Xrotation Yrotation
                End Site
                {
                  OFFSET 0 0 0
                }
              }
            }
          }
        }
      }
    }
  }
}
MOTION
Frames:	17
Frame Time:	0.0333333
121.059 92.0126 5.46622 -97.8672 -52.8768 -91.4516 -172.57 19.7664 95.9818 -40.0447 24.7097 -3.20782 62.7034 0.156001 19.5768 32.7003 3.02019 3.58976 172.246 11.6741 85.038 -52.4759 -5.66436 -2.78641 63.227 0.655118 -13.7103 30.5679 2.94789 -10.9041 1.34805 6.66783 -90.022 13.5462 2.66322 -0.388027 1.87793 2.64356 -0.504946 -20.6788 2.65662 0.430905 -0.666184 2.65663 0.430897 90.8702 -46.3079 -100.325 16.827 -0.327542 -71.8988 -15.6285 -8.63123 -93.6828 -21.2161 -4.90894 6.10882 -108.532 -60.1201 56.3577 5.14182 -21.3832 -35.7992 10.9681 10.3289 -83.8701 36.3226 4.86201 0.904693 -9.95251 0.745101 -3.16108 -7.52353 0.75653 5.08159 
121.624 91.346 4.19414 -94.1519 -48.7834 -89.5181 -172.076 22.0478 95.2535 -39.8034 25.7523 -4.08162 62.4254 0.274849 22.4175 32.5816 2.75149 3.78107 172.472 8.85811 82.4657 -42.5471 -3.60944 -3.31546 66.0554 -2.44383 -13.7915 28.5528 3.99392 -9.96181 1.27506 6.73316 -90.1315 13.4167 2.46599 -0.577589 1.74791 2.43816 -0.68563 -20.806 2.52549 0.190723 -0.793375 2.5255 0.190716 90.297 -45.6046 -101.42 17.1425 -4.4507 -70.4938 -16.0973 -9.47413 -102.492 -18.8807 -4.13083 5.7324 -108.343 -60.3841 56.707 3.17156 -28.4222 -36.5724 10.8162 13.2501 -86.4391 36.1552 4.86889 1.14161 -8.60824 1.23259 3.49139 -7.48672 0.928361 3.05234 
122.224 90.8542 2.80572 -91.278 -44.2715 -87.8921 -172.026 24.4188 95.0586 -40.211 25.838 -4.27561 62.1019 -0.0455254 24.2911 32.1655 1.89217 4.28656 172.346 8.31414 79.6837 -36.4008 -6.62593 -3.93049 67.0858 -3.73236 -12.6309 27.3435 5.37634 -11.2187 1.27159 6.8302 -90.2227 13.2252 2.41615 -0.749045 1.5562 2.38083 -0.854728 -20.997 2.52949 0.012178 -0.984392 2.52951 0.0121836 90.6499 -48.6694 -100.121 10.2558 -9.39101 -69.2591 -15.2583 -7.26721 -107.064 -16.2829 -3.33083 7.08962 -106.057 -58.8868 59.0618 1.18592 -34.598 -38.1566 9.53744 16.8973 -86.0532 37.7852 5.19463 1.66857 -7.74764 1.68408 4.21889 -6.93301 1.21928 6.38475 
122.617 90.5659 1.14606 -89.4008 -39.4784 -86.7861 -172.056 26.4602 95.8131 -40.6798 23.1024 -3.99216 61.5562 -0.859349 23.6246 32.2142 1.96619 4.27586 173.071 8.62972 77.4805 -31.7106 -11.2118 -5.0901 65.1142 -2.15498 -9.57586 28.1645 4.32056 -10.1201 1.12204 6.96614 -90.4023 12.9519 2.03475 -1.05082 1.28201 1.98653 -1.13939 -21.2651 2.25645 -0.390472 -1.25249 2.25646 -0.390466 91.051 -49.0421 -99.4184 6.56323 -14.2912 -67.9093 -15.4341 -5.77743 -109.963 -14.872 -2.86045 7.44753 -105.216 -58.1137 59.8661 3.91917 -41.6871 -35.5183 6.92114 18.4307 -85.064 38.2054 5.18384 1.13373 -7.69267 3.02822 7.98213 -5.72434 2.34591 7.52324 
122.657 90.6136 -0.555255 -86.9788 -35.3796 -86.2077 -171.527 27.6522 96.2402 -38.6335 20.6151 -4.49481 61.0119 -1.32979 22.8671 32.1094 2.35419 3.36945 173.575 10.2502 75.5286 -28.3114 -13.287 -6.04527 64.1751 -2.4694 -2.23643 31.7455 2.39905 -11.6456 0.836764 6.97547 -90.396 12.9296 1.47146 -0.970002 1.2591 1.42736 -1.03384 -21.2818 1.69493 -0.48284 -1.26914 1.69494 -0.482844 91.456 -50.037 -98.5808 2.90721 -19.0871 -66.1389 -13.7811 -4.46856 -111.743 -13.8369 -2.51062 7.75146 -104.253 -57.1517 60.7744 10.3314 -48.5093 -29.4835 4.66406 20.6018 -83.5263 39.423 5.27 0.447387 -8.69876 4.76718 11.0267 -4.43202 4.04546 8.88798 
122.219 90.9279 -2.51916 -84.998 -31.8296 -86.0186 -169.527 28.3007 97.3047 -35.6756 19.0569 -6.18218 60.5478 -1.97479 21.3245 31.6181 1.77382 3.23643 173.64 12.0977 74.7638 -25.1716 -14.1823 -5.71352 63.0645 -2.52312 3.07003 35.5461 -0.791537 -9.96903 0.445893 6.98296 -90.2746 12.9099 0.753652 -0.640194 1.23898 0.724729 -0.672748 -21.2972 0.911186 -0.384087 -1.28459 0.911194 -0.384096 91.7344 -50.3647 -98.0883 0.642768 -25.0319 -64.6741 -13.0017 -2.40208 -112.444 -13.2099 -2.30368 7.43443 -102.82 -55.8717 62.2225 18.0611 -55.1616 -20.7867 3.31153 22.8683 -82.6621 39.6613 5.33705 0.647613 -9.48909 6.75882 13.1004 -2.96702 6.1273 10.2821 
121.417 91.2731 -5.01839 -84.2339 -28.9786 -85.0542 -167.43 29.2578 100.463 -34.1056 17.3601 -7.66134 59.8229 -3.56581 18.2434 31.7369 1.99456 3.13184 173.655 12.5167 76.5878 -21.515 -13.3107 -4.07243 61.974 -2.22592 3.66799 39.0755 -4.36601 -5.28675 0.0521365 7.04028 -90.2695 12.7931 -0.025576 -0.535831 1.12205 -0.0491478 -0.534194 -21.4124 0.136638 -0.518745 -1.39971 0.136633 -0.51875 92.0106 -50.9097 -97.5597 -1.62149 -29.2885 -63.2766 -13.0502 -0.889948 -113.364 -12.2707 -2.00131 6.76199 -102.12 -55.5099 63.041 29.6529 -59.2625 -8.71881 1.41449 23.472 -81.2251 38.6112 5.00233 -0.532539 -10.3462 8.77176 14.713 -1.81136 8.29309 11.2933 
120.704 91.261 -7.70535 -84.1274 -26.4406 -84.1903 -166.038 30.9497 104.035 -34.6307 17.0659 -8.45145 58.8958 -5.46107 15.3932 32.0361 1.69865 4.31723 173.989 12.4039 79.1133 -18.9794 -11.324 -2.74771 62.0469 -2.62618 2.54122 40.8029 -6.41506 -0.719564 -0.186075 7.11554 -90.2666 12.6416 -0.496765 -0.47439 0.970674 -0.517161 -0.452071 -21.5642 -0.331233 -0.601758 -1.55157 -0.331209 -0.601752 92.3146 -51.0098 -97.0778 -3.62095 -31.7259 -61.2695 -14.4797 0.770639 -114.624 -12.674 -2.1369 6.63928 -102.166 -55.7692 63.0712 39.0765 -62.4949 0.904996 1.60343 24.0761 -80.1261 37.2395 4.73502 -1.06694 -11.6202 10.331 15.277 -0.200808 10.1987 12.4551 
120.051 90.7237 -10.1363 -84.69 -25.6161 -85.1323 -165.23 31.928 105.281 -36.1149 17.6559 -8.45029 58.6028 -5.42718 12.9655 32.4092 0.93854 6.42519 174.241 12.5465 79.7551 -19.8598 -9.99877 -2.7585 65.1342 -5.19563 2.03474 41.7373 -7.52798 2.26441 -0.451999 7.20546 -90.0662 12.464 -0.929495 -0.0242214 0.793399 -0.929625 0.0167068 -21.7442 -0.879242 -0.302476 -1.73157 -0.879203 -0.302471 92.9028 -50.019 -96.3582 -2.12239 -32.1836 -58.6038 -12.4348 0.179107 -115.554 -11.0196 -1.6363 5.51068 -103.004 -56.3981 62.167 47.0695 -65.1296 8.25176 1.48482 24.8422 -78.9809 37.2611 4.62778 -1.90274 -13.1038 11.1714 14.7441 1.30194 11.4867 13.83 
119.26 90.0606 -12.0712 -86.0171 -26.1841 -86.6297 -165.496 31.1556 105.466 -36.3331 20.1117 -7.66698 59.3921 -2.96142 10.4476 33.5292 1.46027 8.20347 173.722 12.502 79.6291 -22.8924 -7.95725 -2.81477 69.4355 -8.52317 3.0299 42.3962 -8.22094 4.15793 -0.738499 7.33901 -89.8644 12.1984 -1.40362 0.426458 0.528122 -1.3835 0.487832 -22.0131 -1.4669 -0.0151944 -2.00043 -1.46691 -0.0151986 93.497 -48.6905 -95.6684 -0.224338 -32.2921 -56.5353 -6.84261 -1.00479 -116.408 -8.63113 -0.892621 5.44312 -104.297 -57.1449 60.7142 53.3131 -67.4803 13.8181 1.64062 25.7058 -78.7304 36.6345 4.45918 -2.5766 -14.0641 12.0431 13.3054 1.76327 12.6792 16.096 
118.609 89.716 -13.1503 -86.4251 -25.8332 -85.6219 -166.791 30.4099 107.112 -34.5587 18.5046 -6.64433 60.1902 -1.41641 8.68612 33.3968 1.85147 7.23614 173.635 13.3129 81.243 -25.5319 -6.11751 -2.15935 70.7254 -9.84485 4.29109 43.5651 -8.77155 4.11751 -0.80349 7.37599 -90.0695 12.1268 -1.63003 0.0404165 0.456948 -1.62668 0.112132 -22.0863 -1.56681 -0.451473 -2.07365 -1.5668 -0.451471 94.0378 -47.4972 -95.0161 -2.55497 -34.1188 -55.6768 -14.2163 2.9494 -118.028 -12.1268 -1.91308 8.15784 -108.191 -59.542 56.5639 59.1119 -69.0321 19.1801 2.15288 26.0687 -79.5854 37.4831 4.64461 -1.97671 -15.15 12.5292 14.3254 1.57722 13.3165 16.8768 
117.914 89.6454 -13.8756 -87.1998 -25.1686 -84.3664 -167.266 30.0068 109.543 -34.6447 17.2918 -6.20523 60.16 -2.17508 8.8983 32.1255 0.448468 6.56365 174.09 12.6513 83.3536 -26.3567 -6.0291 -1.85231 70.9738 -10.6423 3.62645 43.824 -8.7744 3.44095 -0.778832 7.46228 -90.4432 11.9426 -1.75733 -0.693509 0.272664 -1.78615 -0.615487 -22.268 -1.46765 -1.18966 -2.25532 -1.46765 -1.18967 94.4585 -46.7304 -94.4687 -4.0932 -33.5496 -54.5713 -11.9125 2.77518 -119.202 -11.0698 -1.56504 7.95341 -114.174 -62.316 50.216 65.018 -70.0742 25.8257 1.52547 25.8966 -80.6237 36.7005 4.46937 -2.55125 -16.3793 12.615 16.5161 1.49507 13.5723 16.8947 
117.168 89.7162 -14.6816 -88.8797 -25.186 -85.553 -167.101 28.1922 109.947 -34.1149 15.2892 -5.68967 59.5343 -3.16584 7.19236 31.9711 0.937178 5.4203 174.347 11.421 83.7377 -27.7694 -8.24855 -2.43415 71.4743 -11.0848 0.701499 43.4346 -8.44504 2.66074 -0.846486 7.58722 -90.4437 11.6944 -1.89186 -0.685921 0.0247231 -1.92021 -0.60197 -22.5174 -1.59824 -1.22288 -2.50477 -1.59823 -1.22288 94.0569 -48.2227 -94.8659 -5.81955 -33.2137 -52.5351 -10.1148 2.3543 -120.356 -10.1664 -1.29495 7.09659 -115.625 -62.9337 48.7193 65.1177 -69.7421 28.2584 1.13009 25.65 -81.0364 37.0756 4.4665 -2.91919 -17.0206 13.0095 16.3852 0.794078 14.0061 17.6808 
116.515 89.5197 -15.3189 -90.1991 -25.5494 -86.6782 -166.891 26.9966 110.232 -33.7213 18.4117 -5.72481 59.0615 -4.04836 9.29382 31.787 0.761781 5.28734 174.373 11.1796 83.8204 -30.4142 -8.50394 -2.86233 72.1917 -11.427 -0.616317 44.0187 -8.83098 3.22547 -0.874833 7.66573 -90.3912 11.5383 -1.92341 -0.581967 -0.131274 -1.94716 -0.496723 -22.6744 -1.65957 -1.13324 -2.66176 -1.65958 -1.13325 93.6675 -49.4511 -95.273 -5.45622 -33.8784 -50.0381 -9.44768 2.20649 -121.223 -9.31287 -1.0461 6.36655 -116.34 -63.263 48.0006 62.5544 -68.4932 26.9941 1.27348 25.1482 -81.0316 37.3346 4.47708 -3.07514 -17.8013 13.0689 15.9333 0.710302 14.1903 18.1638 
115.925 89.5157 -15.7112 -90.6008 -25.6336 -87.1758 -166.958 26.1201 110.307 -33.3175 15.4561 -5.5008 58.8622 -4.3663 6.73558 32.2407 1.17481 5.6512 174.138 11.1964 83.7337 -31.6707 -10.3269 -2.82606 72.0396 -11.501 -2.1911 44.5254 -9.14863 3.65274 -0.802891 7.65201 -90.4048 11.5656 -1.78672 -0.622576 -0.10428 -1.81238 -0.54332 -22.6458 -1.51699 -1.13085 -2.63314 -1.51701 -1.13086 93.5817 -49.3983 -95.4151 -4.32582 -35.9277 -48.9208 -11.5581 4.09513 -121.375 -9.64931 -1.08633 7.80348 -118.189 -63.7833 46.0116 60.8481 -67.3642 25.2504 1.2798 24.5747 -80.3642 35.7667 4.25533 -3.37206 -18.19 12.9597 15.6211 -0.0926771 14.0251 18.3486 
115.321 89.4408 -15.8478 -91.0942 -25.6078 -88.139 -167.279 24.6158 110.025 -32.7898 16.542 -5.19333 58.9318 -4.47313 7.00263 32.0803 1.12767 5.36099 174.278 10.8364 83.394 -32.6277 -10.2418 -3.326 72.5573 -12.1393 -2.61779 44.5589 -9.14821 3.55619 -0.686234 7.61239 -90.4159 11.6448 -1.55996 -0.666591 -0.0253665 -1.58781 -0.597275 -22.5647 -1.28749 -1.10464 -2.55202 -1.28752 -1.10465 93.7147 -49.6703 -95.1633 -3.50695 -36.7692 -47.3449 -12.1123 4.52257 -121.644 -9.85909 -1.12676 8.48413 -121.053 -64.5256 42.9514 57.2036 -65.5297 21.4976 1.24975 22.3204 -79.5074 34.8064 4.13204 -3.49099 -19.2108 12.2945 15.8807 0.0343141 13.5415 18.2567 
114.78 89.4303 -15.8104 -91.7329 -25.6582 -88.7001 -167.351 23.2047 109.77 -32.1528 16.6595 -4.74526 58.7779 -4.56008 7.68219 32.3792 1.83542 4.8756 174.035 10.17 83.2289 -33.2465 -10.6534 -3.49046 72.926 -12.2544 -3.12254 44.4439 -9.09681 3.57789 -0.64911 7.61345 -90.3929 11.6435 -1.47535 -0.629371 -0.0267656 -1.50161 -0.563816 -22.5657 -1.21798 -1.04371 -2.55301 -1.21798 -1.04371 93.3965 -50.4812 -95.5172 -3.47199 -37.2995 -47.3018 -11.9912 4.26089 -121.457 -10.8204 -1.45341 8.5993 -119.022 -64.1131 45.1711 52.8254 -64.7938 18.7641 1.66879 20.8771 -79.3212 34.4884 4.07712 -3.66088 -18.9986 12.4658 15.3309 -0.743434 13.5588 18.6044 
